<svg width="61" height="59" viewBox="0 0 61 59" fill="none" xmlns="http://www.w3.org/2000/svg">
<path fill-rule="evenodd" clip-rule="evenodd" d="M30.0481 0.293701C13.4848 0.293701 0.0691934 13.7093 0.0691934 30.2726C0.0691934 43.5383 8.65059 54.743 20.5673 58.7152C22.0662 58.9775 22.6283 58.0781 22.6283 57.2911C22.6283 56.5792 22.5909 54.2183 22.5909 51.7076C15.0587 53.0942 13.11 49.8714 12.5104 48.1851C12.1732 47.3232 10.7117 44.6625 9.43759 43.9505C8.38829 43.3885 6.88939 42.0019 9.40019 41.9644C11.761 41.927 13.4473 44.1379 14.0094 45.0373C16.7075 49.5716 21.017 48.2975 22.7408 47.5106C23.0031 45.5619 23.79 44.2503 24.6519 43.5009C17.9816 42.7514 11.0115 40.1657 11.0115 28.6988C11.0115 25.4386 12.1732 22.7404 14.0844 20.6419C13.7846 19.8924 12.7353 16.8196 14.3841 12.6975C14.3841 12.6975 16.8948 11.9106 22.6283 15.7703C25.0267 15.0958 27.5748 14.7586 30.1231 14.7586C32.6713 14.7586 35.2195 15.0958 37.6178 15.7703C43.3513 11.8731 45.862 12.6975 45.862 12.6975C47.5109 16.8196 46.4616 19.8924 46.1618 20.6419C48.073 22.7404 49.2347 25.4011 49.2347 28.6988C49.2347 40.2032 42.2271 42.7514 35.5568 43.5009C36.6435 44.4377 37.5803 46.2365 37.5803 49.047C37.5803 53.0566 37.5428 56.2794 37.5428 57.2911C37.5428 58.0781 38.1049 59.015 39.6039 58.7152C51.4456 54.743 60.027 43.5009 60.027 30.2726C60.027 13.7093 46.6115 0.293701 30.0481 0.293701Z" fill="#ffff"/>
</svg>
