<svg width="199" height="27" viewBox="0 0 199 27" fill="none" xmlns="http://www.w3.org/2000/svg">
<path fill-rule="evenodd" clip-rule="evenodd" d="M46.0363 26.1245V17.6494H42.9616V15.8219H51.218V17.6494H48.1427V26.1245H46.0363ZM54.5171 20.9442C54.5171 22.0882 54.7982 22.9946 55.3125 23.6208C55.8209 24.2447 56.5066 24.5294 57.4196 24.5294C58.3305 24.5294 59.0074 24.2447 59.5195 23.6208C60.0359 22.9946 60.3192 22.0882 60.3192 20.9442C60.3192 19.8132 60.0359 18.9554 59.5195 18.3271C59.0074 17.7025 58.3305 17.3683 57.4196 17.3683C56.5066 17.3683 55.8209 17.7025 55.3125 18.3271C54.7982 18.9554 54.5171 19.8132 54.5171 20.9442ZM52.3511 20.9442C52.3511 19.2968 52.8051 17.9857 53.7196 17.0175C54.6304 16.0507 55.8877 15.5408 57.4196 15.5408C58.9566 15.5408 60.1456 16.0507 61.0594 17.0175C61.9731 17.9857 62.4249 19.2968 62.4249 20.9442C62.4249 22.5988 61.9731 23.9687 61.0594 24.9282C60.1456 25.8971 58.9566 26.4136 57.4196 26.4136C55.8877 26.4136 54.6304 25.8971 53.7196 24.9282C52.8051 23.9687 52.3511 22.5988 52.3511 20.9442ZM66.6283 20.3166H69.1386C69.6514 20.3166 70.0479 20.204 70.3363 19.9817C70.5608 19.7515 70.7293 19.4145 70.7293 18.9554C70.7293 18.5051 70.5608 18.1637 70.3363 17.9269C70.1046 17.7025 69.7095 17.5928 69.2511 17.5928H66.6283V20.3166ZM64.5262 26.1245V15.8219H69.5366C70.6167 15.8219 71.4701 16.0507 71.9866 16.5127C72.5546 17.0175 72.84 17.7598 72.84 18.7339C72.84 19.3549 72.665 19.8699 72.4413 20.3166C72.1507 20.7233 71.7578 21.0044 71.2987 21.1766C71.7578 21.3436 72.0411 21.5703 72.2669 21.916C72.4413 22.2007 72.5546 22.7121 72.5546 23.3941L72.6105 24.65C72.6105 25.2688 72.7856 25.6683 73.0078 25.7824V26.1245H70.6726C70.6167 25.9582 70.5607 25.7824 70.5048 25.5572C70.5048 25.332 70.4474 25.0989 70.4474 24.8163V23.7362C70.3879 23.1116 70.2746 22.6518 70.0479 22.4295C69.8242 22.2007 69.4792 22.0882 68.9148 22.0882H66.6283V26.1245H64.5262ZM84.1028 22.5407C84.0447 23.7362 83.5958 24.65 82.7409 25.332C81.9427 26.0715 80.8597 26.4136 79.5486 26.4136C78.0109 26.4136 76.8219 25.8971 75.9728 24.9863C75.1738 24.0224 74.714 22.6518 74.714 20.9442C74.714 19.2416 75.1738 17.8775 76.0236 16.9696C76.8785 15.9999 78.1279 15.5408 79.7164 15.5408C81.0325 15.5408 82.1163 15.88 82.8535 16.5127C83.5958 17.1381 84.0447 18.0453 84.1028 19.2416H81.9993C81.9427 18.6198 81.6565 18.2254 81.3136 17.8775C80.9192 17.5928 80.4064 17.4264 79.7164 17.4264C78.8164 17.4264 78.0741 17.7025 77.6187 18.3271C77.103 18.9554 76.8785 19.8132 76.8785 20.9442C76.8785 22.0882 77.103 22.9365 77.6187 23.5641C78.0741 24.1924 78.7569 24.4735 79.6706 24.4735C80.2968 24.4735 80.8597 24.3064 81.2534 23.9687C81.6565 23.6781 81.9427 23.1661 82.0574 22.5407H84.1028ZM86.1519 15.7682H88.3222V22.2545C88.3222 23.0549 88.4268 23.6208 88.7725 23.9687C89.0565 24.3645 89.5679 24.5294 90.2499 24.5294C90.9944 24.5294 91.5036 24.3645 91.7869 23.9687C92.1312 23.6208 92.3011 23.0549 92.3011 22.2545V15.7682H94.4025V22.4869C94.4025 23.7362 94.0647 24.7059 93.3231 25.3858C92.6396 26.0715 91.6177 26.4136 90.3095 26.4136C88.941 26.4136 87.9169 26.0715 87.2399 25.3858C86.4911 24.7059 86.1519 23.7362 86.1519 22.4869V15.7682ZM100.497 17.8775L99.0192 22.2545H101.917L100.497 17.8775ZM99.2494 15.8219H101.691L105.389 26.1245H103.175L102.485 23.9687H98.5049L97.8185 26.1245H95.5995L99.2494 15.8219ZM108.518 26.1245V17.6494H105.444V15.8219H113.641V17.6494H110.626V26.1245H108.518ZM116.994 20.9442C116.994 22.0882 117.227 22.9946 117.742 23.6208C118.245 24.2447 118.932 24.5294 119.839 24.5294C120.757 24.5294 121.495 24.2447 122.005 23.6208C122.518 22.9946 122.741 22.0882 122.741 20.9442C122.741 19.8132 122.518 18.9554 122.005 18.3271C121.495 17.7025 120.757 17.3683 119.839 17.3683C118.932 17.3683 118.245 17.7025 117.742 18.3271C117.227 18.9554 116.994 19.8132 116.994 20.9442ZM114.833 20.9442C114.833 19.2968 115.287 17.9857 116.2 17.0175C117.109 16.0507 118.303 15.5408 119.839 15.5408C121.379 15.5408 122.633 16.0507 123.541 17.0175C124.454 17.9857 124.908 19.2968 124.908 20.9442C124.908 22.5988 124.454 23.9687 123.541 24.9282C122.633 25.8971 121.379 26.4136 119.839 26.4136C118.303 26.4136 117.109 25.8971 116.2 24.9282C115.287 23.9687 114.833 22.5988 114.833 20.9442ZM134.382 24.2447H136.09C137.057 24.2447 137.793 23.9687 138.196 23.4537C138.647 22.9365 138.876 22.1434 138.876 20.9442C138.876 19.8132 138.647 18.9554 138.252 18.4448C137.856 17.8775 137.229 17.6494 136.319 17.6494H134.382V24.2447ZM132.332 26.1245V15.8219H136.319C137.909 15.8219 139.101 16.2258 139.842 17.0756C140.647 17.9269 141.034 19.2416 141.034 20.9442C141.034 21.916 140.871 22.7121 140.585 23.4537C140.296 24.1924 139.903 24.7604 139.331 25.1657C138.934 25.5013 138.477 25.7323 137.968 25.8971C137.454 26.0155 136.712 26.1245 135.752 26.1245H132.332ZM143.202 15.8219H145.308V26.1245H143.202V15.8219ZM155.632 26.1245V17.6494H152.554V15.8219H160.752V17.6494H157.726V26.1245H155.632ZM162.395 26.1245V15.8219H169.851V17.5928H164.503V19.8132H169.396V21.5703H164.503V24.1924H170.137V26.1245H162.395ZM172.133 26.1245V15.8219H174.287V24.1924H179.298V26.1245H172.133ZM180.888 26.1245V15.8219H182.995V24.1924H188.002V26.1245H180.888ZM193.412 17.8775L191.989 22.2545H194.837L193.412 17.8775ZM192.162 15.8219H194.603L198.31 26.1245H196.084L195.402 23.9687H191.423L190.741 26.1245H188.517L192.162 15.8219Z" fill="#ffff"/>
<path fill-rule="evenodd" clip-rule="evenodd" d="M42.9616 7.32206V0.892408H44.386V7.32206C44.386 8.29247 44.6141 8.97524 45.0135 9.43284C45.469 9.93983 46.09 10.1723 47.0052 10.1723C47.9095 10.1723 48.5393 9.93983 48.994 9.43284C49.4516 8.97524 49.6237 8.29247 49.6237 7.32206V0.892408H51.0423V7.32206C51.0423 8.6847 50.7009 9.7103 49.9644 10.4519C49.2845 11.1332 48.1942 11.4746 46.8323 11.4746C45.5837 11.4746 44.6141 11.1332 43.9291 10.4519C43.3044 9.7735 42.9616 8.6847 42.9616 7.32206ZM53.607 11.1942V0.892408H55.0837L59.9241 8.40796C60.0367 8.57284 60.0919 8.6847 60.2052 8.86919C60.2633 8.97524 60.3192 9.14811 60.3737 9.25561V0.892408H61.7421V11.1942H60.2052L55.3132 3.62712C55.2021 3.51671 55.1425 3.39541 55.0837 3.28501C55.0277 3.16734 54.9718 2.99882 54.9166 2.88188V11.1942H53.607ZM64.357 0.892408H65.724V11.1942H64.357V0.892408ZM70.9602 11.1942L67.2602 0.892408H68.7362L71.6982 9.54397L74.5462 0.892408H76.0244L72.3846 11.1942H70.9602ZM77.5003 11.1942V0.892408H84.8473V2.2071H78.9269V5.27593H84.3919V6.4686H78.9269V9.93983H84.9577V11.1942H77.5003ZM88.4275 2.14464V5.61223H90.8216C91.6736 5.61223 92.3019 5.4459 92.6404 5.21855C92.9883 4.93164 93.2098 4.47767 93.2098 3.79926C93.2098 3.16734 93.0384 2.77002 92.6992 2.4882C92.3585 2.2594 91.731 2.14464 90.8216 2.14464H88.4275ZM87.0678 0.892408H91.0496C91.6736 0.892408 92.1907 0.952695 92.4639 1.00572C92.8103 1.05947 93.0384 1.17496 93.3231 1.28972C93.7241 1.52361 94.0647 1.85918 94.2935 2.2594C94.5238 2.71264 94.6342 3.16734 94.6342 3.79926C94.6342 4.30916 94.5238 4.81688 94.2935 5.21855C94.0647 5.55848 93.6696 5.90277 93.2098 6.13157C93.6093 6.24416 93.8948 6.4134 94.0647 6.69304C94.2369 6.92765 94.348 7.3838 94.4025 8.00774L94.5238 9.7103C94.5238 10.1142 94.5783 10.3371 94.6342 10.5667C94.7439 10.7424 94.8078 10.8543 94.9741 10.9139V11.1942H93.3863C93.2098 10.9698 93.151 10.5129 93.0965 9.82797V9.7735L92.9883 8.46389C92.9883 7.77603 92.8103 7.32206 92.5873 7.0998C92.3019 6.92766 91.6736 6.81434 90.7039 6.81434H88.4275V11.1942H87.0678V0.892408ZM96.5111 7.83414H97.8185C97.8795 8.57284 98.1105 9.14811 98.5608 9.59917C99.0736 10.0517 99.6998 10.2841 100.498 10.2841C101.297 10.2841 101.917 10.1142 102.374 9.7735C102.878 9.43284 103.111 8.97524 103.111 8.40796C103.111 7.60679 102.196 6.98431 100.498 6.58409C100.376 6.58409 100.322 6.58409 100.268 6.52961C98.847 6.18678 97.9333 5.84902 97.4822 5.4459C97.0239 5.04713 96.7922 4.42683 96.7922 3.68232C96.7922 2.77002 97.135 2.03423 97.8185 1.4655C98.5056 0.952696 99.415 0.659976 100.498 0.659976C101.63 0.659976 102.538 0.952695 103.175 1.52361C103.853 2.08653 104.195 2.94072 104.195 3.91112L102.828 3.96996C102.771 3.22399 102.538 2.71264 102.145 2.37271C101.691 1.97322 101.122 1.80761 100.435 1.80761C99.6998 1.80761 99.1899 1.97322 98.7875 2.2594C98.3306 2.5434 98.1686 2.94072 98.1686 3.45352C98.1686 4.25178 99.0199 4.81688 100.722 5.21855C100.951 5.27593 101.122 5.33186 101.297 5.39142H101.409C102.538 5.67325 103.287 5.9587 103.621 6.24416C103.905 6.52961 104.136 6.81434 104.252 7.0998C104.418 7.43973 104.481 7.83414 104.481 8.23436C104.481 9.20258 104.136 9.99431 103.398 10.6211C102.712 11.1942 101.749 11.4746 100.554 11.4746C99.3039 11.4746 98.3306 11.1942 97.5933 10.5129C96.9157 9.88608 96.5692 8.97524 96.5111 7.83414ZM106.637 0.892408H108.064V11.1942H106.637V0.892408ZM114.493 2.08653H112.104V9.93983H114.493C115.517 9.93983 116.31 9.59917 116.824 8.97524C117.341 8.29247 117.623 7.26468 117.623 5.9587C117.623 4.70357 117.341 3.79926 116.824 3.11141C116.256 2.43445 115.517 2.08653 114.493 2.08653ZM110.681 11.1942V0.892408H114.605C116.026 0.892408 117.109 1.34856 117.911 2.2071C118.64 3.05693 119.046 4.30916 119.046 5.90277C119.046 7.60679 118.64 8.86919 117.851 9.82797C117.049 10.7424 115.971 11.1942 114.551 11.1942H110.681ZM122.912 6.92765H126.105L124.508 2.37271L122.912 6.92765ZM119.957 11.1942L123.772 0.892408H125.308L129.123 11.1942H127.638L126.557 8.12032H122.456L121.379 11.1942H119.957ZM134.41 2.08653H132.023V9.93983H134.41C135.435 9.93983 136.23 9.59917 136.744 8.97524C137.256 8.29247 137.54 7.26468 137.54 5.9587C137.54 4.70357 137.256 3.79926 136.744 3.11141C136.174 2.43445 135.435 2.08653 134.41 2.08653ZM130.596 11.1942V0.892408H134.527C135.944 0.892408 137.027 1.34856 137.827 2.2071C138.567 3.05693 138.96 4.30916 138.96 5.90277C138.96 7.60679 138.567 8.86919 137.767 9.82797C136.972 10.7424 135.892 11.1942 134.466 11.1942H130.596Z" fill="#ffffff"/>
<path fill-rule="evenodd" clip-rule="evenodd" d="M25.6016 25.7645H18.9431L29.6205 2.30917H36.2819L25.6016 25.7645ZM36.2819 25.7645H27.2737L36.2819 6.56486V25.7645ZM10.5197 25.7645L21.144 2.30917H27.8976L17.165 25.7645H10.5197ZM2.03733 25.7645L12.7183 2.30917H19.3768L8.69869 25.7645H2.03733ZM2.03733 2.30917H11.0448L2.03733 21.5102V2.30917ZM0.691406 27.0007H37.6416V1.11941H0.691406V27.0007Z" fill="#ffff"/>
</svg>
